<svg width="130" height="104" viewBox="0 0 130 104" fill="none" xmlns="http://www.w3.org/2000/svg">
<circle cx="40" cy="59" r="40" fill="#FF9900"/>
<path fill-rule="evenodd" clip-rule="evenodd" d="M57.9224 17.9102C58.1064 17.5912 58.5141 17.4817 58.833 17.6657L97.833 40.1557C98.152 40.3396 98.2614 40.7473 98.0775 41.0662C97.8936 41.3852 97.4859 41.4946 97.1669 41.3107L58.1669 18.8207C57.848 18.6368 57.7385 18.2291 57.9224 17.9102Z" fill="black"/>
<path fill-rule="evenodd" clip-rule="evenodd" d="M73.3347 9.25856C74.7532 8.4399 76.3622 8.00891 78 8.00891C79.6378 8.00891 81.2468 8.4399 82.6653 9.25856C82.6657 9.25882 82.6662 9.25908 82.6666 9.25934L113 26.5927C114.417 27.411 115.595 28.5877 116.414 30.0048C117.233 31.4218 117.665 33.0293 117.667 34.666V69.334C117.665 70.9708 117.233 72.5783 116.414 73.9953C115.595 75.4123 114.417 76.589 113 77.4074L112.997 77.4089L82.6666 94.7407C82.6664 94.7409 82.6661 94.741 82.6659 94.7411C81.2472 95.56 79.638 95.9911 78 95.9911C76.3619 95.9911 74.7527 95.56 73.3341 94.7411C73.3338 94.741 73.3336 94.7409 73.3333 94.7407L43.0026 77.4089L43 77.4074C41.5825 76.589 40.4052 75.4123 39.5861 73.9953C38.767 72.5783 38.335 70.9708 38.3333 69.334V34.666C38.335 33.0293 38.767 31.4218 39.5861 30.0048C40.4052 28.5877 41.5825 27.411 43 26.5927L43.0026 26.5912L73.3333 9.25934C73.3338 9.25908 73.3342 9.25882 73.3347 9.25856ZM78 9.34224C76.5957 9.34224 75.2161 9.71189 74 10.414L73.9974 10.4155L43.6666 27.7474C43.6662 27.7476 43.6657 27.7479 43.6653 27.7482C42.4509 28.4496 41.4423 29.4579 40.7405 30.672C40.0385 31.8865 39.6681 33.2642 39.6666 34.667V69.333C39.6681 70.7358 40.0385 72.1135 40.7405 73.328C41.4423 74.5421 42.4508 75.5504 43.6651 76.2518C43.6656 76.2521 43.6661 76.2524 43.6666 76.2527L74 93.586C75.2161 94.2881 76.5957 94.6578 78 94.6578C79.4043 94.6578 80.7838 94.2882 82 93.586L82.0026 93.5845L112.333 76.2527C112.334 76.2524 112.334 76.2521 112.335 76.2518C113.549 75.5504 114.558 74.5421 115.259 73.328C115.962 72.1134 116.332 70.7356 116.333 69.3327V34.6674C116.332 33.2645 115.962 31.8866 115.259 30.672C114.558 29.4579 113.549 28.4496 112.335 27.7482C112.334 27.7479 112.334 27.7476 112.333 27.7474L82.0026 10.4155L82 10.414C80.7838 9.71189 79.4043 9.34224 78 9.34224Z" fill="black"/>
<path fill-rule="evenodd" clip-rule="evenodd" d="M39.5931 29.8261C39.7774 29.5074 40.1852 29.3985 40.504 29.5829L78.0001 51.2731L115.496 29.5829C115.815 29.3985 116.223 29.5074 116.407 29.8261C116.592 30.1448 116.483 30.5527 116.164 30.737L78.3339 52.6204C78.1274 52.7398 77.8728 52.7398 77.6663 52.6204L39.8363 30.737C39.5176 30.5527 39.4087 30.1448 39.5931 29.8261Z" fill="black"/>
<path fill-rule="evenodd" clip-rule="evenodd" d="M78 51.3334C78.3682 51.3334 78.6666 51.6319 78.6666 52V95.68C78.6666 96.0482 78.3682 96.3467 78 96.3467C77.6318 96.3467 77.3333 96.0482 77.3333 95.68V52C77.3333 51.6319 77.6318 51.3334 78 51.3334Z" fill="black"/>
</svg>
