<svg width="121" height="100" viewBox="0 0 121 100" fill="none" xmlns="http://www.w3.org/2000/svg">
<circle cx="38.5" cy="61.5" r="38" fill="#FF9900" stroke="#FF9900"/>
<path fill-rule="evenodd" clip-rule="evenodd" d="M77.5 32.8824C71.8472 32.8824 67.2647 37.4122 67.2647 43C67.2647 48.5879 71.8472 53.1177 77.5 53.1177C83.1528 53.1177 87.7353 48.5879 87.7353 43C87.7353 37.4122 83.1528 32.8824 77.5 32.8824ZM65.9853 43C65.9853 36.7137 71.1406 31.6177 77.5 31.6177C83.8594 31.6177 89.0147 36.7137 89.0147 43C89.0147 49.2863 83.8594 54.3824 77.5 54.3824C71.1406 54.3824 65.9853 49.2863 65.9853 43Z" fill="black"/>
<path fill-rule="evenodd" clip-rule="evenodd" d="M77.5001 4.21563C75.7469 4.21563 74.0655 4.90407 72.8259 6.12949C71.5862 7.35491 70.8898 9.01694 70.8898 10.7499V11.3591L70.8898 11.3616C70.8846 12.638 70.502 13.8851 69.789 14.9493C69.0761 16.0135 68.0639 16.8484 66.8771 17.3512C66.7974 17.3849 66.7117 17.4023 66.6251 17.4023H66.4664C65.2896 17.887 63.9951 18.0259 62.7388 17.8007C61.4371 17.5674 60.2359 16.9539 59.2902 16.0395L59.2852 16.0346L59.0677 15.8196C58.4538 15.2121 57.7245 14.7298 56.922 14.401C56.1196 14.0722 55.2594 13.9029 54.3907 13.9029C53.522 13.9029 52.6618 14.0722 51.8593 14.401C51.0569 14.7298 50.3278 15.2118 49.7139 15.8193L49.7134 15.8198C49.0988 16.4267 48.6112 17.1474 48.2786 17.9406C47.9459 18.7339 47.7747 19.5842 47.7747 20.4429C47.7747 21.3016 47.9459 22.1519 48.2786 22.9451C48.6112 23.7384 49.0988 24.459 49.7134 25.0659L49.9361 25.2861C50.8612 26.2209 51.4817 27.4083 51.7178 28.695C51.9526 29.9752 51.7961 31.2954 51.2684 32.487C50.8085 33.7116 49.9883 34.7723 48.9132 35.5324C47.8326 36.2964 46.5444 36.7214 45.2163 36.7521L45.2013 36.7523H44.8751C43.1219 36.7523 41.4405 37.4407 40.2009 38.6662C38.9612 39.8916 38.2648 41.5536 38.2648 43.2866C38.2648 45.0196 38.9612 46.6817 40.2009 47.9071C41.4405 49.1325 43.1219 49.8209 44.8751 49.8209H45.4939C46.7851 49.826 48.0466 50.2042 49.1232 50.909C50.1988 51.6131 51.0429 52.6126 51.5517 53.7844C52.0847 54.98 52.2436 56.3059 52.0078 57.5915C51.7717 58.8783 51.1512 60.0656 50.2261 61.0005L50.2212 61.0055L50.0036 61.2204C49.389 61.8273 48.9012 62.5482 48.5686 63.3414C48.2359 64.1347 48.0647 64.985 48.0647 65.8437C48.0647 66.7024 48.2359 67.5527 48.5686 68.346C48.9012 69.1392 49.3888 69.8599 50.0034 70.4667L50.0039 70.4672C50.6178 71.0748 51.3469 71.5567 52.1493 71.8856C52.9518 72.2144 53.812 72.3837 54.6807 72.3837C55.5494 72.3837 56.4095 72.2144 57.212 71.8856C58.0145 71.5567 58.7435 71.0748 59.3575 70.4672L59.5802 70.247C60.5259 69.3326 61.7271 68.7192 63.0288 68.4859C64.3239 68.2538 65.6594 68.4085 66.8648 68.9301C68.1037 69.3847 69.1768 70.1955 69.9457 71.2583C70.7186 72.3264 71.1485 73.5997 71.1796 74.9127L71.1798 74.9275V75.25C71.1798 76.983 71.8762 78.645 73.1159 79.8704C74.3555 81.0958 76.0369 81.7843 77.7901 81.7843C79.5432 81.7843 81.2246 81.0958 82.4642 79.8704C83.7039 78.645 84.4003 76.983 84.4003 75.25V74.6408L84.4003 74.6383C84.4055 73.3619 84.7881 72.1148 85.5011 71.0506C86.2133 69.9875 87.2243 69.1532 88.4096 68.6502C89.6192 68.1232 90.9606 67.9661 92.2613 68.1992C93.563 68.4325 94.7642 69.046 95.7099 69.9604L95.7149 69.9653L95.9324 70.1803C96.5463 70.7878 97.2756 71.2701 98.0781 71.5989C98.8806 71.9277 99.7407 72.097 100.609 72.097C101.478 72.097 102.338 71.9277 103.141 71.5989C103.943 71.2701 104.672 70.7881 105.286 70.1806L105.287 70.1801C105.901 69.5732 106.389 68.8525 106.722 68.0593C107.054 67.266 107.225 66.4157 107.225 65.557C107.225 64.6983 107.054 63.848 106.722 63.0548C106.389 62.2615 105.901 61.5409 105.287 60.934L105.064 60.7138C104.139 59.779 103.518 58.5916 103.282 57.3049C103.047 56.0192 103.205 54.6931 103.739 53.4975C104.247 52.3257 105.091 51.3264 106.167 50.6223C107.243 49.9176 108.505 49.5394 109.796 49.5343L109.799 49.5343L110.125 49.5343C111.878 49.5343 113.56 48.8458 114.799 47.6204C116.039 46.395 116.735 44.733 116.735 43C116.735 41.2669 116.039 39.6049 114.799 38.3795C113.56 37.1541 111.878 36.4656 110.125 36.4656H109.509L109.506 36.4656C108.215 36.4605 106.953 36.0823 105.877 35.3776C104.8 34.6728 103.956 33.6722 103.447 32.4991C103.413 32.4203 103.395 32.3356 103.395 32.2499V32.0931C102.905 30.9298 102.765 29.6503 102.992 28.4084C103.228 27.1216 103.849 25.9343 104.774 24.9994L104.779 24.9944L104.996 24.7795C105.611 24.1726 106.099 23.4517 106.432 22.6585C106.764 21.8652 106.935 21.0149 106.935 20.1562C106.935 19.2975 106.764 18.4472 106.432 17.6539C106.099 16.8607 105.611 16.14 104.997 15.5332L104.996 15.5327C104.382 14.9251 103.653 14.4432 102.851 14.1143C102.048 13.7855 101.188 13.6162 100.319 13.6162C99.4507 13.6162 98.5906 13.7855 97.7881 14.1143C96.9856 14.4432 96.2566 14.9251 95.6426 15.5327L95.4199 15.7529C94.4742 16.6673 93.273 17.2807 91.9713 17.514C90.6708 17.7471 89.3294 17.5901 88.1199 17.0632C86.9344 16.5602 85.9234 15.7259 85.2111 14.6626C84.4981 13.5984 84.1155 12.3514 84.1104 11.075L84.1103 11.0724V10.7499C84.1103 9.01694 83.4139 7.35491 82.1742 6.12949C80.9346 4.90407 79.2532 4.21563 77.5001 4.21563ZM71.9212 5.23521C73.4008 3.77261 75.4076 2.95093 77.5001 2.95093C79.5925 2.95093 81.5993 3.77261 83.0789 5.23521C84.5585 6.69781 85.3898 8.68152 85.3898 10.7499L85.3898 11.0699C85.3898 11.0703 85.3898 11.0707 85.3898 11.0711C85.3941 12.1004 85.7028 13.1061 86.2778 13.9643C86.853 14.8228 87.6696 15.4964 88.627 15.9021L88.6334 15.9047C89.6098 16.3307 90.6929 16.4578 91.7431 16.2696C92.7921 16.0816 93.7602 15.5875 94.5228 14.851C94.5236 14.8503 94.5244 14.8495 94.5252 14.8487L94.7375 14.6389C94.7375 14.6388 94.7374 14.639 94.7375 14.6389C95.4701 13.9139 96.3405 13.3385 97.2981 12.946C98.2559 12.5536 99.2826 12.3515 100.319 12.3515C101.356 12.3515 102.383 12.5536 103.341 12.946C104.298 13.3384 105.168 13.9135 105.901 14.6384C106.634 15.3627 107.216 16.2229 107.613 17.1696C108.01 18.1164 108.215 19.1313 108.215 20.1562C108.215 21.1811 108.01 22.196 107.613 23.1428C107.216 24.0895 106.634 24.9497 105.901 25.674L105.689 25.8838C105.688 25.8846 105.687 25.8854 105.686 25.8863C104.941 26.6401 104.441 27.597 104.251 28.634C104.061 29.6721 104.189 30.7428 104.62 31.708C104.656 31.7884 104.675 31.8754 104.675 31.9633V32.1163C105.089 33.013 105.75 33.7778 106.583 34.3231C107.452 34.8915 108.469 35.1966 109.51 35.2009H110.125C112.218 35.2009 114.224 36.0226 115.704 37.4852C117.184 38.9478 118.015 40.9315 118.015 43C118.015 45.0684 117.184 47.0521 115.704 48.5147C114.224 49.9773 112.218 50.799 110.125 50.799L109.801 50.799C109.801 50.799 109.801 50.799 109.8 50.799C108.759 50.8033 107.742 51.1084 106.873 51.6768C106.005 52.2453 105.323 53.0526 104.913 53.9991L104.91 54.0053C104.479 54.9705 104.351 56.0411 104.541 57.0792C104.731 58.1162 105.231 59.0731 105.976 59.8269C105.977 59.8277 105.978 59.8286 105.979 59.8294L106.191 60.0392C106.191 60.0393 106.191 60.0391 106.191 60.0392C106.924 60.7635 107.506 61.6238 107.903 62.5705C108.3 63.5173 108.505 64.5321 108.505 65.557C108.505 66.5819 108.3 67.5968 107.903 68.5436C107.506 69.4903 106.925 70.3503 106.191 71.0746C105.458 71.7996 104.588 72.3748 103.631 72.7672C102.673 73.1597 101.646 73.3617 100.609 73.3617C99.5726 73.3617 98.5459 73.1597 97.5881 72.7672C96.6304 72.3748 95.7604 71.7996 95.0277 71.0746C95.0276 71.0745 95.0278 71.0747 95.0277 71.0746L94.8152 70.8645C94.8144 70.8637 94.8135 70.8628 94.8126 70.862C94.0501 70.1256 93.082 69.6317 92.0331 69.4436C90.9829 69.2554 89.8998 69.3825 88.9233 69.8085L88.9171 69.8112C87.9596 70.2169 87.143 70.8904 86.5678 71.7489C85.9928 72.6072 85.6841 73.6128 85.6798 74.6421C85.6798 74.6425 85.6798 74.6429 85.6798 74.6433L85.6798 75.25C85.6798 77.3184 84.8485 79.3021 83.3689 80.7647C81.8893 82.2273 79.8825 83.049 77.7901 83.049C75.6976 83.049 73.6908 82.2273 72.2112 80.7647C70.7316 79.3021 69.9003 77.3184 69.9003 75.25V74.935C69.8739 73.8784 69.5272 72.8538 68.9051 71.994C68.2816 71.1322 67.4102 70.4758 66.4042 70.1101C66.3974 70.1076 66.3907 70.105 66.384 70.1023C66.3782 70.1 66.3725 70.0976 66.3668 70.0951C65.3903 69.6692 64.3072 69.5421 63.2571 69.7303C62.208 69.9183 61.24 70.4123 60.4774 71.1487C60.4765 71.1496 60.4757 71.1504 60.4749 71.1512L60.2626 71.361C59.5299 72.0861 58.6598 72.6614 57.702 73.0539C56.7442 73.4463 55.7175 73.6484 54.6807 73.6484C53.6439 73.6484 52.6172 73.4463 51.6594 73.0539C50.7016 72.6614 49.8315 72.0861 49.0987 71.361C48.3654 70.6368 47.7836 69.7768 47.3867 68.8303C46.9896 67.8835 46.7853 66.8686 46.7853 65.8437C46.7853 64.8188 46.9896 63.8039 47.3867 62.8571C47.7837 61.9105 48.3655 61.0504 49.099 60.3261C49.099 60.3261 49.0989 60.3262 49.099 60.3261L49.3115 60.1161C49.3123 60.1153 49.3131 60.1145 49.3139 60.1137C50.0589 59.3599 50.5587 58.4029 50.7489 57.3659C50.9393 56.3278 50.8107 55.2571 50.3798 54.2919L50.377 54.2857C49.9667 53.3392 49.2853 52.532 48.4168 51.9634C47.5486 51.3951 46.5313 51.09 45.4899 51.0856C45.4895 51.0856 45.4892 51.0856 45.4888 51.0856L44.8751 51.0856C42.7826 51.0856 40.7758 50.264 39.2962 48.8014C37.8166 47.3388 36.9854 45.355 36.9854 43.2866C36.9854 41.2182 37.8166 39.2345 39.2962 37.7719C40.7758 36.3093 42.7826 35.4876 44.8751 35.4876H45.1936C46.2626 35.4614 47.2991 35.1187 48.1689 34.5038C49.0407 33.8874 49.7047 33.0261 50.0747 32.0317C50.0793 32.0192 50.0844 32.0068 50.0898 31.9946C50.5207 31.0294 50.6493 29.9587 50.4589 28.9207C50.2687 27.8837 49.7689 26.9267 49.0239 26.1729L48.8092 25.9607C48.0757 25.2364 47.4937 24.3762 47.0967 23.4294C46.6996 22.4826 46.4953 21.4678 46.4953 20.4429C46.4953 19.418 46.6996 18.4031 47.0967 17.4563C47.4937 16.5095 48.0757 15.6494 48.8092 14.9251C49.5419 14.2002 50.4118 13.6251 51.3694 13.2327C52.3272 12.8402 53.3539 12.6382 54.3907 12.6382C55.4275 12.6382 56.4542 12.8402 57.412 13.2327C58.3697 13.6251 59.2397 14.2003 59.9724 14.9253C59.9725 14.9254 59.9723 14.9252 59.9724 14.9253L60.1874 15.1378C60.95 15.8742 61.918 16.3682 62.967 16.5563C64.0172 16.7445 65.1003 16.6174 66.0768 16.1914C66.1581 16.1559 66.2461 16.1376 66.3351 16.1376H66.4899C67.397 15.7276 68.1707 15.0744 68.7223 14.251C69.2973 13.3927 69.606 12.3871 69.6103 11.3578V10.7499C69.6103 8.68152 70.4416 6.69781 71.9212 5.23521Z" fill="black"/>
</svg>
